<?xml version="1.0" standalone="no"?>
<!DOCTYPE svg PUBLIC "-//W3C//DTD SVG 20010904//EN"
 "http://www.w3.org/TR/2001/REC-SVG-20010904/DTD/svg10.dtd">
<svg version="1.0" xmlns="http://www.w3.org/2000/svg"
 width="32.000000pt" height="32.000000pt" viewBox="0 0 32.000000 32.000000"
 preserveAspectRatio="xMidYMid meet">

<g transform="translate(0.000000,32.000000) scale(0.100000,-0.100000)"
fill="#000000" stroke="none">
<path d="M128 269 c-10 -10 -30 -21 -45 -25 -49 -10 -53 -13 -53 -34 0 -14 7
-20 24 -20 40 0 91 -41 94 -78 4 -39 -4 -40 -52 -7 -45 30 -66 32 -66 5 0 -21
4 -24 53 -34 15 -4 36 -15 47 -26 11 -11 25 -20 30 -20 6 0 19 9 30 20 11 11
32 22 47 26 49 10 53 13 53 34 0 27 -21 25 -66 -5 -48 -33 -56 -32 -52 7 3 37
54 78 94 78 17 0 24 6 24 20 0 26 -29 38 -44 18 -29 -39 -85 -52 -130 -30
l-30 14 25 14 c13 7 31 13 40 14 21 0 38 20 32 36 -7 19 -35 16 -55 -7z"/>
</g>
</svg>
